<svg xmlns="http://www.w3.org/2000/svg" xmlns:xlink="http://www.w3.org/1999/xlink" id="Шар_2" width="1200" height="1200" x="0" y="0" enable-background="new 0 -533.505 1200 1200" version="1.1" viewBox="0 -533.505 1200 1200" xml:space="preserve"><path fill="#FFF" fill-rule="evenodd" d="M0,666.495h1200c0,0,0.014-1187.621,0.014-1197	c-10.873,9.678-119.37,103.509-141.773,106.585c-68.707,9.436-9.542,68.461-212.074,183.589	c-36.94,20.998-38.743,114.078-78.736,171.483C669.098,72.296,648.273,215.935,565.855,225.035	c-26.446,2.92-81.792-40.09-132.145-103.204C388.761,65.491,349.389-8.293,312.782-57.196	c-57.225-76.445-93.978-31.439-166.143-114.348C84.31-243.15,0-236.373,0-236.373V666.495z" clip-rule="evenodd"/></svg>