<?xml version="1.0" encoding="utf-8"?>
<!-- Generator: Adobe Illustrator 15.0.0, SVG Export Plug-In . SVG Version: 6.00 Build 0)  -->
<!DOCTYPE svg PUBLIC "-//W3C//DTD SVG 1.1//EN" "http://www.w3.org/Graphics/SVG/1.1/DTD/svg11.dtd">
<svg version="1.1" xmlns="http://www.w3.org/2000/svg" xmlns:xlink="http://www.w3.org/1999/xlink" x="0px" y="0px" width="170px"
	 height="46px" viewBox="0 0 170 46" enable-background="new 0 0 170 46" xml:space="preserve">
<g id="Фігура_2_1_" enable-background="new    ">
	<path fill="#FFFFFF" d="M155.145,0.738l-3.855,9.245l7.285,13.425c1.965,3.766,6.61,5.227,10.377,3.262L155.145,0.738z"/>
	<path fill="#FFFFFF" d="M155.671,27.166c-1.14,0.294-2.252,0.4-3.338,0.317c-1.085-0.082-2.091-0.322-3.017-0.722
		c-0.925-0.398-1.722-0.941-2.389-1.632c-0.667-0.688-1.135-1.498-1.404-2.429c-0.307-1.063-0.191-2.096,0.348-3.098
		c0.538-1.001,1.355-1.661,2.452-1.979c1.097-0.316,2.14-0.194,3.129,0.365s1.639,1.372,1.946,2.435
		c0.24,0.831,0.247,1.604,0.021,2.316c-0.091,0.314-0.202,0.58-0.336,0.799c-0.135,0.22-0.257,0.452-0.365,0.699
		c-0.26,0.473-0.344,0.929-0.253,1.369c0.093,0.442,0.319,0.791,0.681,1.046C153.903,27.155,154.745,27.326,155.671,27.166"/>
	<path fill="#FFFFFF" d="M45.457,0.931l-3.855,9.084l7.286,13.425c1.964,3.766,6.61,5.227,10.376,3.262L45.457,0.931z"/>
	<path fill="#FFFFFF" d="M1.049,27.575L1.049,27.575l0-26.645h7.429l0.001,19.237C8.479,24.259,5.153,27.575,1.049,27.575"/>
	<path fill="#FFFFFF" d="M103.68,0.938c-7.607,0-13.774,5.963-13.774,13.318s6.169,13.153,13.774,13.318
		c7.215,0.156,13.643-5.91,13.775-13.318C117.586,6.902,111.287,0.938,103.68,0.938 M103.68,27.196
		c-6.203,0-6.306-6.088-6.306-12.939c0-6.851,0.103-12.939,6.306-12.939c6.108,0,6.307,6.089,6.307,12.939
		C109.986,21.108,110.293,27.196,103.68,27.196"/>
	<rect x="62.116" y="0.918" fill="#FFFFFF" width="7.431" height="0.267"/>
	<path fill="#FFFFFF" d="M73.143,0.918L73.143,0.918h-4.73v0.019h-6.295l-0.001,26.639c4.104,0,7.431-3.327,7.431-7.431V4.891
		c0-1.985,1.609-3.596,3.596-3.596c5.242,0,6.263,6.129,6.133,12.96c-0.122,6.402-0.17,12.196-6.133,13.241
		c7.607,0,13.774-5.907,13.774-13.241C86.917,6.92,80.75,0.918,73.143,0.918"/>
	<path fill="#FFFFFF" d="M27.202,27.568c3.823-1.566,2.121-3.999-1.683-6.142c-1.742-0.982-3.643-1.765-5.424-2.701
		c-1.776-0.934-3.699-1.736-5.208-2.953c-4.154-3.349-4.095-7.912-2.347-10.698c2.084-3.322,5.3-3.792,7.936-3.772
		c-2.28,1.003-3.035,2.753-2.646,4.763c0.231,1.198,1.11,2.15,2.3,2.839c1.569,0.908,3.245,1.689,4.866,2.537
		c1.589,0.83,3.279,1.562,4.734,2.531c6.028,4.017,3.863,10.5-0.965,13.123C28.231,27.389,27.546,27.49,27.202,27.568"/>
	<path fill="#FFFFFF" d="M32.182,4.144c0.855,1.288,0.627,3.003-0.625,3.91c-1.253,0.907-3.004,0.628-3.911-0.625
		c-0.454-0.627-0.789-1.935-0.411-2.955c1.009-2.729-1.436-3.146-1.436-3.146S29.984,0.836,32.182,4.144"/>
	<path fill="#FFFFFF" d="M46.342,27.166c-1.14,0.294-2.252,0.4-3.338,0.317c-1.085-0.082-2.09-0.322-3.017-0.722
		c-0.925-0.398-1.721-0.941-2.388-1.632c-0.667-0.688-1.135-1.498-1.404-2.429c-0.307-1.063-0.192-2.096,0.347-3.098
		c0.539-1.001,1.356-1.661,2.453-1.979c1.096-0.316,2.14-0.194,3.129,0.365s1.639,1.372,1.946,2.435
		c0.24,0.831,0.248,1.604,0.022,2.316c-0.09,0.314-0.202,0.58-0.336,0.799c-0.135,0.22-0.256,0.452-0.365,0.699
		c-0.26,0.473-0.344,0.929-0.253,1.369c0.092,0.442,0.319,0.791,0.681,1.046C44.575,27.155,45.416,27.326,46.342,27.166"/>
	<path fill="#FFFFFF" d="M138.344,17.625c1.913-1.145,4.565-3.935,4.565-7.063c0-5.618-4.374-9.126-8.115-9.581
		c-0.283-0.034-0.898-0.05-0.898-0.05H120.45v26.68c0,0.006,0.005,0.011,0.011,0.011c4.1-0.006,7.7-3.154,7.7-7.255V6.948
		l0.01-2.432c0.008-1.865,1.525-3.216,3.392-3.211c0,0,2.204-0.183,3.127,0.847c0.923,1.03,1.141,1.424,1.152,8.409
		c0.002,0.907,0.014,1.646-0.029,2.756c-0.028,0.73-0.123,1.502-0.339,2.188c-0.25,0.791-0.815,1.489-1.596,1.771
		c-1.077,0.389-3.042,0.348-3.649,0.349c-0.008,0,2.691,6.167,2.691,6.167l0.001,0.001c1.963,3.763,6.603,5.224,10.366,3.267
		c0.006-0.003,0.008-0.01,0.005-0.015C143.292,27.045,138.339,17.628,138.344,17.625"/>
</g>
<g id="Фігура_1_1_" enable-background="new    ">
	<path fill="#00E06D" d="M103.889,44.975h-1.106c-0.127,0-0.23-0.029-0.309-0.089c-0.079-0.061-0.138-0.136-0.177-0.229
		l-0.989-2.381h-4.742l-0.989,2.381c-0.034,0.084-0.093,0.157-0.175,0.221c-0.085,0.065-0.188,0.097-0.312,0.097h-1.105l4.227-9.866
		h1.452L103.889,44.975z M96.965,41.312h3.945l-1.66-4.014c-0.108-0.248-0.214-0.557-0.317-0.93
		c-0.054,0.188-0.106,0.363-0.158,0.521c-0.051,0.158-0.102,0.297-0.151,0.416L96.965,41.312z"/>
	<path fill="#00E06D" d="M112.726,44.004c0.284,0,0.547-0.013,0.785-0.037c0.238-0.025,0.464-0.063,0.673-0.114
		c0.213-0.05,0.413-0.111,0.6-0.183c0.187-0.07,0.372-0.151,0.561-0.244V41.25h-1.638c-0.093,0-0.168-0.024-0.226-0.075
		c-0.056-0.051-0.085-0.113-0.085-0.187v-0.757h3.246v3.789c-0.265,0.176-0.542,0.332-0.829,0.466
		c-0.29,0.133-0.596,0.244-0.922,0.333c-0.327,0.09-0.678,0.156-1.052,0.201c-0.374,0.043-0.779,0.064-1.217,0.064
		c-0.767,0-1.471-0.122-2.109-0.368c-0.639-0.245-1.189-0.59-1.652-1.032c-0.462-0.443-0.822-0.975-1.08-1.595
		c-0.26-0.619-0.387-1.301-0.387-2.044c0-0.753,0.124-1.439,0.38-2.059c0.251-0.62,0.614-1.15,1.083-1.594
		c0.47-0.442,1.038-0.786,1.704-1.029c0.667-0.243,1.412-0.365,2.239-0.365c0.417,0,0.806,0.028,1.165,0.087
		c0.359,0.057,0.691,0.14,0.999,0.247c0.308,0.108,0.591,0.238,0.852,0.393c0.262,0.153,0.504,0.327,0.73,0.52l-0.405,0.605
		c-0.084,0.125-0.192,0.187-0.325,0.187c-0.078,0-0.164-0.025-0.26-0.076c-0.121-0.064-0.259-0.142-0.411-0.233
		c-0.152-0.093-0.338-0.181-0.558-0.266c-0.219-0.085-0.477-0.157-0.773-0.217c-0.299-0.06-0.65-0.09-1.059-0.09
		c-0.595,0-1.133,0.091-1.615,0.272s-0.893,0.44-1.231,0.778c-0.339,0.337-0.601,0.746-0.783,1.226
		c-0.181,0.479-0.272,1.018-0.272,1.614c0,0.623,0.095,1.181,0.285,1.669c0.188,0.489,0.455,0.903,0.8,1.243
		s0.752,0.599,1.225,0.777C111.634,43.915,112.155,44.004,112.726,44.004"/>
	<polygon fill="#00E06D" points="128.45,35.109 128.45,36.196 123.376,36.196 123.376,39.474 127.483,39.474 127.483,40.521 
		123.376,40.521 123.376,43.888 128.45,43.888 128.45,44.975 121.937,44.975 121.937,35.109 	"/>
	<path fill="#00E06D" d="M134.627,35.153c0.062,0.03,0.131,0.091,0.21,0.183l6.121,7.437c-0.014-0.12-0.024-0.236-0.029-0.349
		c-0.004-0.111-0.007-0.221-0.007-0.326v-6.989h1.254v9.866h-0.723c-0.113,0-0.208-0.019-0.284-0.055
		c-0.076-0.037-0.151-0.099-0.225-0.187l-6.114-7.428c0.009,0.115,0.017,0.227,0.022,0.337c0.004,0.11,0.007,0.212,0.007,0.304
		v7.028h-1.254v-9.866h0.736C134.47,35.108,134.565,35.124,134.627,35.153"/>
	<path fill="#00E06D" d="M155.304,42.938c0.079,0,0.149,0.029,0.214,0.089l0.561,0.571c-0.433,0.469-0.958,0.834-1.575,1.095
		c-0.616,0.262-1.36,0.393-2.23,0.393c-0.763,0-1.452-0.122-2.074-0.368c-0.617-0.245-1.146-0.59-1.584-1.032
		c-0.438-0.443-0.777-0.975-1.018-1.595c-0.241-0.619-0.361-1.301-0.361-2.045c0-0.743,0.129-1.425,0.387-2.045
		c0.258-0.619,0.621-1.151,1.088-1.596c0.467-0.446,1.026-0.791,1.679-1.037c0.651-0.246,1.369-0.368,2.157-0.368
		c0.777,0,1.446,0.112,2.01,0.337c0.563,0.226,1.063,0.53,1.501,0.916l-0.465,0.612c-0.035,0.047-0.074,0.085-0.118,0.114
		c-0.044,0.03-0.108,0.045-0.192,0.045c-0.063,0-0.131-0.021-0.202-0.066c-0.071-0.043-0.156-0.097-0.254-0.161
		c-0.099-0.064-0.215-0.132-0.348-0.206c-0.133-0.073-0.29-0.142-0.472-0.207c-0.182-0.063-0.393-0.118-0.635-0.161
		c-0.24-0.044-0.518-0.066-0.833-0.066c-0.565,0-1.083,0.091-1.553,0.272c-0.47,0.181-0.874,0.439-1.213,0.774
		c-0.34,0.336-0.604,0.744-0.793,1.226s-0.283,1.021-0.283,1.617c0,0.615,0.094,1.164,0.283,1.646
		c0.189,0.483,0.447,0.891,0.774,1.223s0.713,0.586,1.162,0.761c0.446,0.175,0.928,0.262,1.445,0.262
		c0.313,0,0.597-0.018,0.848-0.053c0.251-0.033,0.483-0.089,0.697-0.161c0.214-0.073,0.412-0.166,0.597-0.279
		c0.185-0.111,0.37-0.246,0.558-0.402C155.144,42.972,155.226,42.938,155.304,42.938"/>
	<path fill="#00E06D" d="M165.128,41.05v3.925h-1.423V41.05l-3.872-5.94h1.253c0.128,0,0.229,0.029,0.303,0.089
		s0.138,0.134,0.192,0.221L164,39.253c0.099,0.161,0.18,0.313,0.247,0.455c0.065,0.143,0.126,0.282,0.181,0.42
		c0.054-0.143,0.112-0.283,0.177-0.427c0.063-0.143,0.145-0.292,0.242-0.448l2.413-3.834c0.045-0.073,0.105-0.144,0.182-0.21
		c0.075-0.067,0.175-0.1,0.298-0.1h1.268L165.128,41.05z"/>
</g>
</svg>
